<svg xmlns="http://www.w3.org/2000/svg" xmlns:xlink="http://www.w3.org/1999/xlink" width="500" zoomAndPan="magnify" viewBox="0 0 375 374.999991" height="500" preserveAspectRatio="xMidYMid meet" version="1.0"><defs><g/><clipPath id="c40d12e241"><path d="M 111.621094 50 L 164 50 L 164 127 L 111.621094 127 Z M 111.621094 50 " clip-rule="nonzero"/></clipPath><clipPath id="4fe882b7b7"><path d="M 207 50 L 259.371094 50 L 259.371094 127 L 207 127 Z M 207 50 " clip-rule="nonzero"/></clipPath><clipPath id="37ae868f6d"><path d="M 159 30.921875 L 211 30.921875 L 211 145.671875 L 159 145.671875 Z M 159 30.921875 " clip-rule="nonzero"/></clipPath></defs><path fill="#0ea678" d="M 158.28125 124.535156 C 157.464844 124.535156 156.660156 124.261719 156.015625 123.75 L 114.65625 91.207031 C 113.765625 90.507812 113.253906 89.460938 113.253906 88.332031 C 113.253906 87.199219 113.765625 86.152344 114.652344 85.449219 L 156.015625 52.910156 C 156.660156 52.398438 157.464844 52.125 158.28125 52.125 C 159.410156 52.125 160.464844 52.628906 161.160156 53.523438 C 161.765625 54.289062 162.039062 55.25 161.921875 56.21875 C 161.808594 57.191406 161.316406 58.058594 160.546875 58.664062 L 122.851562 88.332031 L 160.546875 117.992188 C 161.316406 118.601562 161.808594 119.46875 161.921875 120.4375 C 162.039062 121.410156 161.765625 122.363281 161.160156 123.136719 C 160.464844 124.023438 159.410156 124.535156 158.28125 124.535156 " fill-opacity="1" fill-rule="nonzero"/><g clip-path="url(#c40d12e241)"><path fill="#067654" d="M 158.28125 50.566406 C 157.117188 50.566406 155.972656 50.957031 155.054688 51.679688 L 113.691406 84.222656 C 112.417969 85.230469 111.695312 86.71875 111.695312 88.332031 C 111.695312 89.941406 112.425781 91.4375 113.691406 92.4375 L 155.054688 124.980469 C 155.96875 125.695312 157.117188 126.097656 158.28125 126.097656 C 159.898438 126.097656 161.394531 125.367188 162.386719 124.097656 C 163.253906 123.007812 163.636719 121.640625 163.472656 120.253906 C 163.304688 118.871094 162.613281 117.628906 161.515625 116.765625 L 125.371094 88.332031 L 161.515625 59.894531 C 162.613281 59.027344 163.304688 57.789062 163.472656 56.40625 C 163.636719 55.019531 163.253906 53.652344 162.386719 52.554688 C 161.394531 51.289062 159.890625 50.566406 158.28125 50.566406 Z M 158.28125 53.683594 C 158.90625 53.683594 159.523438 53.960938 159.9375 54.484375 C 160.660156 55.402344 160.496094 56.722656 159.585938 57.441406 L 120.324219 88.332031 L 159.585938 119.21875 C 160.496094 119.9375 160.660156 121.261719 159.9375 122.171875 C 159.523438 122.703125 158.90625 122.976562 158.28125 122.976562 C 157.828125 122.976562 157.371094 122.832031 156.984375 122.527344 L 115.617188 89.984375 C 115.113281 89.585938 114.816406 88.972656 114.816406 88.332031 C 114.816406 87.679688 115.113281 87.074219 115.617188 86.675781 L 156.984375 54.132812 C 157.363281 53.828125 157.828125 53.683594 158.28125 53.683594 " fill-opacity="1" fill-rule="nonzero"/></g><path fill="#0ea678" d="M 212.859375 124.535156 C 211.730469 124.535156 210.679688 124.023438 209.976562 123.136719 C 208.726562 121.554688 209.003906 119.246094 210.59375 117.992188 L 248.296875 88.332031 L 210.59375 58.664062 C 209.003906 57.417969 208.726562 55.105469 209.976562 53.523438 C 210.679688 52.628906 211.730469 52.125 212.859375 52.125 C 213.675781 52.125 214.480469 52.398438 215.125 52.910156 L 256.492188 85.449219 C 257.378906 86.152344 257.882812 87.199219 257.882812 88.332031 C 257.882812 89.460938 257.378906 90.507812 256.484375 91.207031 L 215.125 123.75 C 214.480469 124.261719 213.675781 124.535156 212.859375 124.535156 " fill-opacity="1" fill-rule="nonzero"/><g clip-path="url(#4fe882b7b7)"><path fill="#067654" d="M 212.859375 50.566406 C 211.25 50.566406 209.75 51.289062 208.753906 52.554688 C 206.96875 54.820312 207.363281 58.109375 209.625 59.894531 L 245.769531 88.332031 L 209.625 116.765625 C 207.363281 118.546875 206.96875 121.839844 208.753906 124.097656 C 209.75 125.367188 211.25 126.097656 212.859375 126.097656 C 214.027344 126.097656 215.167969 125.695312 216.085938 124.980469 L 257.453125 92.4375 C 258.71875 91.4375 259.441406 89.941406 259.441406 88.332031 C 259.441406 86.71875 258.71875 85.230469 257.457031 84.222656 L 216.089844 51.679688 C 215.175781 50.957031 214.027344 50.566406 212.859375 50.566406 Z M 212.859375 53.683594 C 213.316406 53.683594 213.777344 53.828125 214.15625 54.132812 L 255.523438 86.675781 C 256.027344 87.074219 256.324219 87.679688 256.324219 88.332031 C 256.324219 88.972656 256.027344 89.585938 255.523438 89.984375 L 214.15625 122.527344 C 213.777344 122.832031 213.316406 122.976562 212.859375 122.976562 C 212.234375 122.976562 211.617188 122.703125 211.207031 122.171875 C 210.488281 121.261719 210.644531 119.9375 211.554688 119.21875 L 250.820312 88.332031 L 211.554688 57.441406 C 210.644531 56.722656 210.488281 55.402344 211.207031 54.484375 C 211.617188 53.960938 212.242188 53.683594 212.859375 53.683594 " fill-opacity="1" fill-rule="nonzero"/></g><path fill="#0ea678" d="M 165.015625 144.175781 C 164.558594 144.175781 164.117188 144.085938 163.691406 143.925781 C 162.78125 143.570312 162.058594 142.882812 161.664062 141.988281 C 161.265625 141.089844 161.246094 140.097656 161.597656 139.1875 L 201.996094 34.828125 C 202.539062 33.429688 203.910156 32.488281 205.410156 32.488281 C 205.863281 32.488281 206.3125 32.574219 206.738281 32.734375 C 208.617188 33.464844 209.558594 35.59375 208.828125 37.480469 L 168.433594 141.835938 C 167.890625 143.230469 166.511719 144.175781 165.015625 144.175781 " fill-opacity="1" fill-rule="nonzero"/><g clip-path="url(#37ae868f6d)"><path fill="#067654" d="M 205.410156 30.925781 C 203.269531 30.925781 201.308594 32.273438 200.542969 34.265625 L 160.140625 138.621094 C 159.644531 139.925781 159.675781 141.339844 160.234375 142.621094 C 160.804688 143.894531 161.828125 144.878906 163.132812 145.378906 C 163.734375 145.617188 164.367188 145.734375 165.015625 145.734375 C 167.15625 145.734375 169.117188 144.394531 169.890625 142.394531 L 210.28125 38.039062 C 211.324219 35.351562 209.984375 32.316406 207.292969 31.28125 C 206.695312 31.046875 206.058594 30.925781 205.410156 30.925781 Z M 205.410156 34.046875 C 205.664062 34.046875 205.921875 34.097656 206.167969 34.191406 C 207.253906 34.609375 207.792969 35.824219 207.375 36.910156 L 166.976562 141.265625 C 166.65625 142.101562 165.859375 142.613281 165.015625 142.613281 C 164.757812 142.613281 164.503906 142.570312 164.253906 142.46875 C 163.167969 142.050781 162.632812 140.828125 163.054688 139.75 L 203.449219 35.394531 C 203.773438 34.558594 204.566406 34.046875 205.410156 34.046875 " fill-opacity="1" fill-rule="nonzero"/></g><g fill="#ffffff" fill-opacity="1"><g transform="translate(101.91948, 257.482865)"><g><path d="M 21.441406 0 L 21.441406 -82.027344 L 5.460938 -82.027344 L 5.460938 0 Z M 21.441406 0 "/></g></g></g><g fill="#ffffff" fill-opacity="1"><g transform="translate(124.980313, 257.482865)"><g><path d="M 21.339844 0 L 21.339844 -29.636719 L 42.683594 -29.636719 C 63.214844 -29.636719 71.710938 -41.875 71.710938 -56.335938 L 71.710938 -56.4375 C 71.710938 -69.6875 64.125 -82.027344 42.683594 -82.027344 L 5.5625 -82.027344 L 5.5625 0 Z M 21.339844 -67.261719 L 41.066406 -67.261719 C 50.371094 -67.261719 55.527344 -63.519531 55.527344 -55.328125 L 55.527344 -55.226562 C 55.527344 -47.132812 50.269531 -43.59375 41.066406 -43.59375 L 21.339844 -43.59375 Z M 21.339844 -67.261719 "/></g></g></g><g fill="#ffffff" fill-opacity="1"><g transform="translate(196.388219, 257.482865)"><g><path d="M 38.234375 -15.578125 L 18.105469 -82.027344 L 1.011719 -82.027344 L 26.703125 0 L 49.761719 0 L 75.65625 -82.027344 L 58.664062 -82.027344 Z M 38.234375 -15.578125 "/></g></g></g><g fill="#059669" fill-opacity="1"><g transform="translate(65.065364, 328.6332)"><g><path d="M 16.863281 0.75 C 21.890625 0.75 25.273438 0 29.125 -1.878906 L 29.125 -38.09375 L 21.703125 -38.09375 L 21.703125 -27.339844 C 20.058594 -27.714844 18.320312 -28.042969 16.582031 -28.042969 C 7.375 -28.042969 1.925781 -21.984375 1.925781 -13.714844 L 1.925781 -13.621094 C 1.925781 -5.355469 7.65625 0.75 16.863281 0.75 Z M 16.863281 -5.917969 C 11.976562 -5.917969 9.394531 -9.300781 9.394531 -13.621094 L 9.394531 -13.714844 C 9.394531 -18.039062 11.976562 -21.371094 16.863281 -21.371094 C 18.507812 -21.371094 20.246094 -20.996094 21.703125 -20.667969 L 21.703125 -6.527344 C 20.246094 -6.152344 18.648438 -5.917969 16.863281 -5.917969 Z M 16.863281 -5.917969 "/></g></g></g><g fill="#059669" fill-opacity="1"><g transform="translate(94.975633, 328.6332)"><g><path d="M 29.828125 -12.589844 C 29.828125 -22.21875 24.566406 -28.042969 15.925781 -28.042969 C 7.375 -28.042969 1.878906 -22.125 1.878906 -13.714844 L 1.878906 -13.667969 C 1.878906 -5.121094 7.75 0.703125 16.816406 0.703125 C 22.078125 0.703125 25.789062 -0.941406 28.511719 -2.628906 L 25.273438 -8.410156 C 23.296875 -7 20.433594 -5.824219 17.144531 -5.824219 C 13.058594 -5.824219 10.382812 -8.457031 9.628906 -11.929688 L 29.828125 -11.929688 Z M 15.878906 -21.984375 C 19.492188 -21.984375 21.65625 -19.636719 22.21875 -16.535156 L 9.675781 -16.535156 C 10.382812 -19.636719 12.636719 -21.984375 15.878906 -21.984375 Z M 15.878906 -21.984375 "/></g></g></g><g fill="#059669" fill-opacity="1"><g transform="translate(124.932848, 328.6332)"><g><path d="M 14.890625 -5.261719 L 8.359375 -26.960938 L 0.5625 -26.960938 L 9.769531 0 L 20.011719 0 L 29.21875 -26.960938 L 21.417969 -26.960938 Z M 14.890625 -5.261719 "/></g></g></g><g fill="#059669" fill-opacity="1"><g transform="translate(152.917906, 328.6332)"><g><path d="M 29.828125 -12.589844 C 29.828125 -22.21875 24.566406 -28.042969 15.925781 -28.042969 C 7.375 -28.042969 1.878906 -22.125 1.878906 -13.714844 L 1.878906 -13.667969 C 1.878906 -5.121094 7.75 0.703125 16.816406 0.703125 C 22.078125 0.703125 25.789062 -0.941406 28.511719 -2.628906 L 25.273438 -8.410156 C 23.296875 -7 20.433594 -5.824219 17.144531 -5.824219 C 13.058594 -5.824219 10.382812 -8.457031 9.628906 -11.929688 L 29.828125 -11.929688 Z M 15.878906 -21.984375 C 19.492188 -21.984375 21.65625 -19.636719 22.21875 -16.535156 L 9.675781 -16.535156 C 10.382812 -19.636719 12.636719 -21.984375 15.878906 -21.984375 Z M 15.878906 -21.984375 "/></g></g></g><g fill="#059669" fill-opacity="1"><g transform="translate(182.875125, 328.6332)"><g><path d="M 10.003906 0 L 10.003906 -38.09375 L 2.535156 -38.09375 L 2.535156 0 Z M 10.003906 0 "/></g></g></g><g fill="#059669" fill-opacity="1"><g transform="translate(193.627219, 328.6332)"><g><path d="M 16.863281 0.75 C 25.695312 0.75 31.847656 -5.355469 31.847656 -13.667969 L 31.847656 -13.714844 C 31.847656 -21.984375 25.695312 -28.042969 16.863281 -28.042969 C 8.03125 -28.042969 1.925781 -21.984375 1.925781 -13.714844 L 1.925781 -13.667969 C 1.925781 -5.355469 8.078125 0.75 16.863281 0.75 Z M 16.863281 -5.917969 C 12.402344 -5.917969 9.394531 -9.300781 9.394531 -13.667969 L 9.394531 -13.761719 C 9.394531 -18.085938 12.355469 -21.371094 16.863281 -21.371094 C 21.417969 -21.371094 24.332031 -18.085938 24.332031 -13.761719 L 24.332031 -13.667969 C 24.332031 -9.300781 21.371094 -5.917969 16.863281 -5.917969 Z M 16.863281 -5.917969 "/></g></g></g><g fill="#059669" fill-opacity="1"><g transform="translate(225.55659, 328.6332)"><g><path d="M 10.003906 10.335938 L 10.003906 -0.046875 C 11.648438 0.375 13.386719 0.703125 15.125 0.703125 C 24.285156 0.703125 29.78125 -5.355469 29.78125 -13.574219 L 29.78125 -13.667969 C 29.78125 -21.9375 24.003906 -28.042969 14.796875 -28.042969 C 9.769531 -28.042969 5.777344 -26.773438 2.535156 -25.460938 L 2.535156 10.335938 Z M 14.796875 -5.964844 C 13.199219 -5.964844 11.460938 -6.339844 10.003906 -6.71875 L 10.003906 -20.808594 C 11.460938 -21.183594 13.058594 -21.371094 14.796875 -21.371094 C 19.730469 -21.371094 22.265625 -18.039062 22.265625 -13.667969 L 22.265625 -13.574219 C 22.265625 -9.253906 19.730469 -5.964844 14.796875 -5.964844 Z M 14.796875 -5.964844 "/></g></g></g><g fill="#059669" fill-opacity="1"><g transform="translate(255.466863, 328.6332)"><g><path d="M 29.828125 -12.589844 C 29.828125 -22.21875 24.566406 -28.042969 15.925781 -28.042969 C 7.375 -28.042969 1.878906 -22.125 1.878906 -13.714844 L 1.878906 -13.667969 C 1.878906 -5.121094 7.75 0.703125 16.816406 0.703125 C 22.078125 0.703125 25.789062 -0.941406 28.511719 -2.628906 L 25.273438 -8.410156 C 23.296875 -7 20.433594 -5.824219 17.144531 -5.824219 C 13.058594 -5.824219 10.382812 -8.457031 9.628906 -11.929688 L 29.828125 -11.929688 Z M 15.878906 -21.984375 C 19.492188 -21.984375 21.65625 -19.636719 22.21875 -16.535156 L 9.675781 -16.535156 C 10.382812 -19.636719 12.636719 -21.984375 15.878906 -21.984375 Z M 15.878906 -21.984375 "/></g></g></g><g fill="#059669" fill-opacity="1"><g transform="translate(285.424081, 328.6332)"><g><path d="M 10.003906 0 L 10.003906 -19.730469 C 10.617188 -19.871094 13.667969 -20.105469 14.796875 -20.105469 L 18.835938 -20.105469 L 18.835938 -26.960938 L 13.574219 -26.960938 C 11.132812 -26.960938 6.480469 -26.773438 2.535156 -25.929688 L 2.535156 0 Z M 10.003906 0 "/></g></g></g></svg>